<?xml version="1.0" encoding="UTF-8"?>
<!DOCTYPE svg PUBLIC "-//W3C//DTD SVG 1.1//EN" "http://www.w3.org/Graphics/SVG/1.1/DTD/svg11.dtd">
<svg xmlns="http://www.w3.org/2000/svg" version="1.1" width="1205px" height="1229px" style="shape-rendering:geometricPrecision; text-rendering:geometricPrecision; image-rendering:optimizeQuality; fill-rule:evenodd; clip-rule:evenodd" xmlns:xlink="http://www.w3.org/1999/xlink">
<g><path style="opacity:0.991" fill="#da3232" d="M 566.5,-0.5 C 600.5,-0.5 634.5,-0.5 668.5,-0.5C 867.313,22.271 1022.15,116.271 1133,281.5C 1163.9,330.623 1187.73,382.957 1204.5,438.5C 1204.5,440.167 1204.5,441.833 1204.5,443.5C 1179.56,451.318 1154.56,458.985 1129.5,466.5C 1128.83,466.167 1128.17,465.833 1127.5,465.5C 1082.21,319.006 992.213,209.506 857.5,137C 715.799,67.7482 570.799,60.0815 422.5,114C 286.293,169.538 187.127,264.038 125,397.5C 61.4898,549.992 64.8231,700.992 135,850.5C 233.164,1032.73 385.997,1131.73 593.5,1147.5C 756.857,1150.2 894.691,1092.87 1007,975.5C 1064.09,911.684 1104.93,838.35 1129.5,755.5C 1130.72,754.386 1132.06,754.219 1133.5,755C 1157.23,762.411 1180.9,769.911 1204.5,777.5C 1204.5,781.167 1204.5,784.833 1204.5,788.5C 1138.19,990.98 1004.52,1127.81 803.5,1199C 736.271,1219.82 667.605,1229.65 597.5,1228.5C 594.167,1228.5 590.833,1228.5 587.5,1228.5C 401.356,1216.52 249.523,1138.85 132,995.5C 49.0187,890.082 4.85206,770.082 -0.5,635.5C -0.5,615.5 -0.5,595.5 -0.5,575.5C 15.1357,386.579 97.469,234.413 246.5,119C 323.32,62.937 408.653,25.937 502.5,8C 523.872,4.32964 545.205,1.49631 566.5,-0.5 Z"/></g>
<g><path style="opacity:0.993" fill="#95a202" d="M 606.5,139.5 C 720.482,139.435 822.148,174.269 911.5,244C 1024.8,339.613 1083.47,461.947 1087.5,611C 1084.46,771.761 1019.12,900.428 891.5,997C 782.235,1073.26 661.569,1100.59 529.5,1079C 370.531,1045.99 255.365,956.824 184,811.5C 180.884,803.482 177.384,795.649 173.5,788C 175.753,785.789 178.419,784.123 181.5,783C 200.833,774.667 220.167,766.333 239.5,758C 242.351,756.392 245.351,755.726 248.5,756C 290.059,856.894 360.726,929.561 460.5,974C 552.069,1011.96 645.069,1015.63 739.5,985C 786.612,968.957 828.945,944.957 866.5,913C 979.526,812.278 1023.69,686.778 999,536.5C 977.07,436.744 925.57,356.244 844.5,295C 717.944,209.679 584.611,197.679 444.5,259C 375.418,293.415 320.251,343.248 279,408.5C 267.556,429.555 257.056,451.055 247.5,473C 245.087,473.484 242.754,473.15 240.5,472C 217.633,462.381 194.966,452.381 172.5,442C 207.217,353.626 263.217,281.96 340.5,227C 420.126,170.736 508.792,141.57 606.5,139.5 Z"/></g>
<g><path style="opacity:0.975" fill="#b2b2b2" d="M 605.5,281.5 C 716.391,281.371 806.557,324.038 876,409.5C 880.761,416.033 885.261,422.7 889.5,429.5C 888.455,431.205 887.122,432.705 885.5,434C 865.477,448.012 845.811,462.512 826.5,477.5C 803.121,444.953 774.455,418.119 740.5,397C 665.878,355.387 589.211,351.387 510.5,385C 440.178,418.992 394.011,473.492 372,548.5C 350.188,646.048 375.021,729.548 446.5,799C 527.399,866.871 617.065,881.204 715.5,842C 747.228,827.601 775.061,807.768 799,782.5C 808.749,770.929 818.249,759.263 827.5,747.5C 848.143,761.161 868.476,775.327 888.5,790C 889.899,791.062 890.899,792.395 891.5,794C 834.418,879.076 754.751,928.41 652.5,942C 531.569,952.596 432.069,911.763 354,819.5C 298.802,746.399 275.802,664.065 285,572.5C 299.421,475.873 345.588,398.706 423.5,341C 478.429,303.635 539.095,283.802 605.5,281.5 Z"/></g>
</svg>
